<svg  viewBox="0 0 21 21" fill="none" xmlns="http://www.w3.org/2000/svg">
<path fill-rule="evenodd" clip-rule="evenodd" d="M16.6123 4.06548C14.9485 2.40173 12.692 1.46705 10.3391 1.46705C7.98623 1.46705 5.7297 2.40173 4.06596 4.06547C2.40222 5.72922 1.46754 7.98574 1.46754 10.3386C1.46754 12.6915 2.40222 14.948 4.06596 16.6118C5.7297 18.2755 7.98623 19.2102 10.3391 19.2102C12.692 19.2102 14.9485 18.2755 16.6123 16.6118C18.276 14.948 19.2107 12.6915 19.2107 10.3386C19.2107 7.98574 18.276 5.72922 16.6123 4.06548ZM3.1698 17.5079C1.26838 15.6065 0.200173 13.0276 0.200172 10.3386C0.200173 7.64961 1.26838 5.07073 3.1698 3.16931C5.07122 1.26789 7.6501 0.199686 10.3391 0.199685C13.0281 0.199685 15.607 1.26789 17.5084 3.16931C19.4098 5.07073 20.478 7.64961 20.478 10.3386C20.478 13.0276 19.4098 15.6065 17.5084 17.5079C15.607 19.4094 13.0281 20.4776 10.3391 20.4776C7.6501 20.4776 5.07122 19.4094 3.1698 17.5079ZM14.8199 10.9731C14.9882 10.9731 15.1496 10.9063 15.2686 10.7873C15.3876 10.6683 15.4544 10.5069 15.4544 10.3386C15.4544 10.1703 15.3876 10.009 15.2686 9.88997C15.1496 9.77099 14.9882 9.70414 14.8199 9.70414L7.47766 9.70504L9.95824 7.22445C10.0771 7.10561 10.1438 6.94443 10.1438 6.77637C10.1438 6.60831 10.0771 6.44713 9.95824 6.32829C9.8394 6.20945 9.67822 6.14269 9.51016 6.14269C9.3421 6.14269 9.18092 6.20945 9.06208 6.32829L5.49983 9.89054C5.38099 10.0094 5.31422 10.1706 5.31422 10.3386C5.31422 10.5067 5.38099 10.6679 5.49983 10.7867L9.06208 14.349C9.18092 14.4678 9.3421 14.5346 9.51016 14.5346C9.67822 14.5346 9.8394 14.4678 9.95824 14.349C10.0771 14.2301 10.1438 14.0689 10.1438 13.9009C10.1438 13.7328 10.0771 13.5716 9.95824 13.4528L7.47766 10.9722L14.8199 10.9731Z" fill="#1E1E1E"/>
</svg>
